<svg width="16" height="16" viewBox="0 0 12 12" xmlns="http://www.w3.org/2000/svg"><path style="fill:none;stroke:#000;stroke-width:.6;stroke-linecap:butt;stroke-linejoin:miter;stroke-miterlimit:4;stroke-dasharray:none;stroke-opacity:1" d="M3.172 8.347a1.249 1.249 0 0 0-1.768 0 1.249 1.249 0 0 0 0 1.767 1.249 1.249 0 0 0 1.768 0 1.249 1.249 0 0 0 0-1.767zm7.424 0a1.249 1.249 0 0 0-1.768 0 1.249 1.249 0 0 0 0 1.767 1.249 1.249 0 0 0 1.768 0 1.249 1.249 0 0 0 0-1.767zm-1.768 0a4.003 4.003 0 0 0 0-5.657 4.003 4.003 0 0 0-5.656 0 4.003 4.003 0 0 0 0 5.657"/></svg>