<svg width="32" height="32" viewBox="0 0 32 32" fill="none" xmlns="http://www.w3.org/2000/svg">
<path d="M21.0624 25.7684C19.6862 26.4831 18.1398 26.9155 16.5 26.9888V21.9795C17.2307 21.9192 17.9243 21.728 18.5573 21.4293L21.0624 25.7684Z" fill="#5E81AC"/>
<path d="M25.2676 21.928C24.4089 23.2677 23.2677 24.4089 21.928 25.2676L19.4228 20.9285C20.0097 20.5202 20.5202 20.0097 20.9285 19.4228L25.2676 21.928Z" fill="#BF616A"/>
<path d="M26.9888 16.5C26.9155 18.1398 26.4831 19.6862 25.7684 21.0624L21.4293 18.5573C21.728 17.9243 21.9192 17.2307 21.9795 16.5H26.9888Z" fill="#EBCB8B"/>
<path d="M25.7684 10.9376C26.4831 12.3138 26.9155 13.8602 26.9888 15.5H21.9795C21.9192 14.7693 21.728 14.0757 21.4293 13.4427L25.7684 10.9376Z" fill="#A3BE8C"/>
<path d="M21.928 6.73239C23.2677 7.59109 24.4089 8.73232 25.2676 10.072L20.9285 12.5771C20.5202 11.9903 20.0097 11.4798 19.4228 11.0715L21.928 6.73239Z" fill="#5E81AC"/>
<path d="M16.5 5.01116C18.1398 5.08452 19.6862 5.5169 21.0624 6.23159L18.5573 10.5707C17.9243 10.272 17.2307 10.0808 16.5 10.0205V5.01116Z" fill="#BF616A"/>
<path d="M10.9376 6.23159C12.3138 5.5169 13.8602 5.08452 15.5 5.01116V10.0205C14.7693 10.0808 14.0757 10.272 13.4427 10.5707L10.9376 6.23159Z" fill="#EBCB8B"/>
<path d="M6.73239 10.072C7.59109 8.73232 8.73232 7.59109 10.072 6.73239L12.5772 11.0715C11.9903 11.4798 11.4798 11.9903 11.0715 12.5772L6.73239 10.072Z" fill="#A3BE8C"/>
<path d="M5.01116 15.5C5.08452 13.8602 5.5169 12.3138 6.23159 10.9376L10.5707 13.4427C10.272 14.0757 10.0808 14.7693 10.0205 15.5H5.01116Z" fill="#5E81AC"/>
<path d="M6.23159 21.0624C5.5169 19.6862 5.08452 18.1398 5.01116 16.5H10.0205C10.0808 17.2307 10.272 17.9243 10.5707 18.5573L6.23159 21.0624Z" fill="#BF616A"/>
<path d="M10.072 25.2676C8.73232 24.4089 7.59109 23.2677 6.73239 21.928L11.0715 19.4228C11.4798 20.0097 11.9903 20.5202 12.5772 20.9285L10.072 25.2676Z" fill="#EBCB8B"/>
<path d="M10.9376 25.7684L13.4427 21.4293C14.0757 21.728 14.7693 21.9192 15.5 21.9795V26.9888C13.8602 26.9155 12.3138 26.4831 10.9376 25.7684Z" fill="#A3BE8C"/>
<path d="M27.8682 8.57052L26.1346 9.57143C25.187 8.08059 23.9194 6.81304 22.4286 5.8654L23.4295 4.13177C25.2229 5.25681 26.7432 6.7771 27.8682 8.57052Z" fill="#5E81AC"/>
<path d="M2.00876 16.5H4.01023C4.0849 18.3218 4.56574 20.0389 5.3646 21.563L3.63097 22.5639C2.66335 20.7443 2.08549 18.6859 2.00876 16.5Z" fill="#BF616A"/>
<path d="M23.4295 27.8682L22.4286 26.1346C23.9194 25.187 25.187 23.9194 26.1346 22.4286L27.8682 23.4295C26.7432 25.2229 25.2229 26.7432 23.4295 27.8682Z" fill="#BF616A"/>
<path d="M16.5 29.9912V27.9898C18.3218 27.9151 20.0389 27.4343 21.563 26.6354L22.5639 28.369C20.7443 29.3366 18.6859 29.9145 16.5 29.9912Z" fill="#5E81AC"/>
<path d="M3.63097 9.43608L5.3646 10.437C4.56574 11.9611 4.0849 13.6782 4.01023 15.5H2.00876C2.08549 13.3141 2.66335 11.2557 3.63097 9.43608Z" fill="#5E81AC"/>
<path d="M15.5 29.9912V27.9898C13.6782 27.9151 11.9611 27.4343 10.437 26.6354L9.43609 28.369C11.2557 29.3366 13.3141 29.9145 15.5 29.9912Z" fill="#A3BE8C"/>
<path d="M8.57052 4.13177L9.57143 5.86539C8.0806 6.81304 6.81304 8.08059 5.8654 9.57143L4.13177 8.57052C5.25682 6.7771 6.7771 5.25681 8.57052 4.13177Z" fill="#A3BE8C"/>
<path d="M29.9912 15.5H27.9898C27.9151 13.6782 27.4343 11.9611 26.6354 10.437L28.369 9.43608C29.3367 11.2557 29.9145 13.3141 29.9912 15.5Z" fill="#A3BE8C"/>
<path d="M28.369 22.5639L26.6354 21.563C27.4343 20.0389 27.9151 18.3218 27.9898 16.5H29.9912C29.9145 18.6859 29.3367 20.7443 28.369 22.5639Z" fill="#EBCB8B"/>
<path d="M4.13177 23.4295L5.8654 22.4286C6.81304 23.9194 8.0806 25.187 9.57143 26.1346L8.57052 27.8682C6.7771 26.7432 5.25682 25.2229 4.13177 23.4295Z" fill="#EBCB8B"/>
<path d="M15.5 2.00876V4.01022C13.6782 4.08489 11.9611 4.56573 10.437 5.3646L9.43609 3.63096C11.2557 2.66334 13.3141 2.08549 15.5 2.00876Z" fill="#EBCB8B"/>
<path d="M22.5639 3.63096L21.563 5.36459C20.0389 4.56573 18.3218 4.08489 16.5 4.01022V2.00876C18.6859 2.08549 20.7443 2.66334 22.5639 3.63096Z" fill="#BF616A"/>
</svg>
